<svg width="206" height="40" viewBox="0 0 206 40" fill="none" xmlns="http://www.w3.org/2000/svg">
<path d="M57.9689 6C51.6496 6 46.0023 9.1804 46.0023 15.0564C46.0023 21.7951 56.018 22.2606 56.018 25.6459C56.018 27.0713 54.3356 28.3473 51.4623 28.3473C47.3844 28.3473 44.3366 26.5644 44.3366 26.5644L43.0324 32.494C43.0324 32.494 46.5435 34 51.2049 34C58.114 34 63.5506 30.6634 63.5506 24.6869C63.5506 17.5663 53.4932 17.1147 53.4932 13.9725C53.4932 12.8559 54.8743 11.6324 57.7394 11.6324C60.9722 11.6324 63.6097 12.9291 63.6097 12.9291L64.886 7.20212C64.886 7.20212 62.0161 6 57.9689 6V6ZM0.153017 6.43222L0 7.29667C0 7.29667 2.65856 7.76911 5.05302 8.71153C8.1361 9.7922 8.35572 10.4213 8.87496 12.3753L14.5331 33.5543H22.1178L33.8028 6.43222H26.2354L18.7271 24.8726L15.6633 9.24168C15.3824 7.45273 13.9591 6.43222 12.217 6.43222H0.153017V6.43222ZM36.8457 6.43222L30.9093 33.5543H38.1255L44.041 6.43222H36.8457V6.43222ZM77.0925 6.43222C75.3525 6.43222 74.4305 7.3368 73.754 8.91751L63.1819 33.5543H70.7493L72.2134 29.4481H81.4326L82.3229 33.5543H89L83.1749 6.43222H77.0925V6.43222ZM78.0767 13.7598L80.3198 23.9373H74.3104L78.0767 13.7598V13.7598Z" fill="#1434CB"/>
<path d="M119.185 7.42123H134.587V32.5763H119.185V7.42123Z" fill="#FF5F00"/>
<path d="M120.771 20.001C120.77 17.5788 121.319 15.1879 122.377 13.0092C123.436 10.8305 124.976 8.92119 126.881 7.42568C124.521 5.57103 121.687 4.41773 118.703 4.0976C115.719 3.77746 112.704 4.30341 110.005 5.61532C107.305 6.92723 105.029 8.97219 103.437 11.5165C101.844 14.0607 101 17.0017 101 20.0032C101 23.0047 101.844 25.9456 103.437 28.4899C105.029 31.0342 107.305 33.0791 110.005 34.391C112.704 35.7029 115.719 36.2289 118.703 35.9087C121.687 35.5886 124.521 34.4353 126.881 32.5807C124.975 31.0847 123.435 29.1746 122.376 26.9951C121.318 24.8156 120.769 22.4239 120.771 20.0009V20.001Z" fill="#EB001B"/>
<path d="M151.236 29.9145V29.3991H151.459V29.2924H150.93V29.3991H151.139V29.9146L151.236 29.9145ZM152.263 29.9145V29.2925H152.103L151.916 29.7368L151.73 29.2924H151.57V29.9145H151.685V29.4435L151.859 29.848H151.979L152.152 29.4435V29.9145H152.263Z" fill="#F79E1B"/>
<path d="M152.765 20.001C152.765 23.0027 151.92 25.9439 150.328 28.4882C148.735 31.0326 146.459 33.0775 143.759 34.3892C141.059 35.701 138.044 36.2266 135.06 35.906C132.075 35.5854 129.241 34.4315 126.881 32.5762C128.786 31.0794 130.326 29.1695 131.385 26.9908C132.443 24.812 132.994 22.4212 132.994 19.9987C132.994 17.5763 132.443 15.1855 131.385 13.0067C130.326 10.8279 128.786 8.91808 126.881 7.42123C129.241 5.56599 132.075 4.41211 135.06 4.09151C138.044 3.77091 141.059 4.29652 143.759 5.60825C146.459 6.91999 148.735 8.96492 150.328 11.5093C151.92 14.0537 152.765 16.9948 152.765 19.9966V20.001Z" fill="#F79E1B"/>
<path d="M177.212 35.8234V33.7044C177.225 33.5267 177.199 33.3483 177.137 33.1813C177.075 33.0143 176.978 32.8623 176.853 32.7357C176.727 32.609 176.577 32.5105 176.41 32.4468C176.244 32.383 176.066 32.3555 175.888 32.3659C175.654 32.3506 175.421 32.3983 175.212 32.5039C175.004 32.6095 174.827 32.7692 174.701 32.9663C174.586 32.7751 174.422 32.6184 174.226 32.5127C174.029 32.4071 173.808 32.3563 173.585 32.3659C173.391 32.3561 173.198 32.3972 173.024 32.4852C172.851 32.5731 172.703 32.7049 172.596 32.8674V32.4507H171.862V35.8234H172.603V33.9552C172.587 33.8396 172.596 33.7218 172.631 33.6104C172.666 33.4989 172.725 33.3965 172.804 33.3107C172.883 33.2248 172.98 33.1576 173.088 33.114C173.197 33.0703 173.313 33.0512 173.43 33.0581C173.917 33.0581 174.164 33.376 174.164 33.9481V35.8234H174.906V33.9552C174.891 33.8398 174.901 33.7226 174.937 33.6117C174.972 33.5008 175.031 33.399 175.11 33.3134C175.188 33.2279 175.285 33.1607 175.393 33.1165C175.5 33.0724 175.616 33.0525 175.733 33.0581C176.234 33.0581 176.474 33.376 176.474 33.9481V35.8234H177.212ZM181.344 34.1388V32.4542H180.603V32.8639C180.478 32.7032 180.317 32.5744 180.133 32.4885C179.948 32.4025 179.746 32.3617 179.543 32.3695C179.075 32.3695 178.626 32.5555 178.295 32.8867C177.963 33.2178 177.777 33.667 177.777 34.1353C177.777 34.6036 177.963 35.0528 178.295 35.3839C178.626 35.7151 179.075 35.9011 179.543 35.9011C179.746 35.9089 179.948 35.8681 180.133 35.7821C180.317 35.6961 180.478 35.5674 180.603 35.4067V35.8163H181.337L181.344 34.1388ZM178.614 34.1388C178.626 33.9401 178.696 33.7491 178.814 33.5894C178.933 33.4297 179.096 33.3083 179.283 33.24C179.47 33.1718 179.673 33.1598 179.867 33.2054C180.061 33.251 180.237 33.3523 180.374 33.4968C180.511 33.6413 180.603 33.8227 180.638 34.0186C180.673 34.2146 180.65 34.4165 180.572 34.5996C180.494 34.7827 180.364 34.939 180.198 35.0491C180.032 35.1592 179.838 35.2185 179.639 35.2195C179.498 35.2228 179.358 35.1967 179.228 35.1429C179.098 35.0891 178.981 35.0088 178.884 34.907C178.787 34.8053 178.712 34.6844 178.665 34.5521C178.617 34.4199 178.597 34.2791 178.607 34.1388H178.614ZM197.039 32.373C197.281 32.3724 197.521 32.4179 197.745 32.5072C197.96 32.5931 198.155 32.7203 198.321 32.8815C198.484 33.0413 198.614 33.2323 198.702 33.4431C198.887 33.8959 198.887 34.4029 198.702 34.8557C198.614 35.0666 198.484 35.2575 198.321 35.4173C198.155 35.5785 197.96 35.7057 197.745 35.7916C197.28 35.9726 196.763 35.9726 196.297 35.7916C196.084 35.7058 195.889 35.5786 195.725 35.4173C195.563 35.2569 195.435 35.0661 195.347 34.8557C195.163 34.4029 195.163 33.896 195.347 33.4431C195.435 33.2328 195.563 33.0419 195.725 32.8815C195.889 32.7202 196.084 32.593 196.297 32.5072C196.53 32.4107 196.78 32.3615 197.032 32.3624L197.039 32.373ZM197.039 33.0793C196.895 33.0774 196.752 33.1038 196.619 33.157C196.493 33.2075 196.379 33.2832 196.283 33.3795C196.186 33.4809 196.11 33.6011 196.061 33.7327C195.953 34.0147 195.953 34.3265 196.061 34.6085C196.11 34.7402 196.186 34.8604 196.283 34.9617C196.379 35.0581 196.493 35.1338 196.619 35.1842C196.888 35.2895 197.187 35.2895 197.456 35.1842C197.588 35.1354 197.708 35.0596 197.809 34.9617C197.906 34.8605 197.982 34.7403 198.031 34.6085C198.139 34.3265 198.139 34.0147 198.031 33.7327C197.982 33.6009 197.906 33.4807 197.809 33.3795C197.708 33.2816 197.588 33.2058 197.456 33.157C197.322 33.096 197.178 33.0624 197.032 33.0581L197.039 33.0793ZM185.335 34.1388C185.335 33.0793 184.678 32.373 183.735 32.373C183.267 32.3795 182.82 32.5719 182.494 32.9077C182.167 33.2435 181.988 33.6952 181.994 34.1635C182.001 34.6319 182.193 35.0784 182.529 35.4049C182.865 35.7314 183.316 35.9112 183.785 35.9046C184.287 35.9218 184.779 35.7534 185.166 35.4314L184.812 34.8875C184.533 35.1112 184.188 35.2354 183.831 35.2407C183.588 35.2616 183.346 35.1869 183.158 35.0326C182.969 34.8782 182.848 34.6564 182.821 34.4143H185.324C185.335 34.326 185.335 34.2377 185.335 34.1388ZM182.824 33.8422C182.838 33.618 182.938 33.4078 183.103 33.2557C183.268 33.1035 183.486 33.0214 183.71 33.0263C183.82 33.024 183.93 33.0433 184.032 33.0833C184.135 33.1232 184.228 33.1829 184.308 33.2589C184.387 33.335 184.451 33.426 184.495 33.5267C184.539 33.6274 184.563 33.7358 184.565 33.8457L182.824 33.8422ZM188.425 33.3124C188.103 33.1267 187.738 33.027 187.366 33.0228C186.963 33.0228 186.723 33.1711 186.723 33.4184C186.723 33.6656 186.977 33.7079 187.295 33.7503L187.648 33.7998C188.383 33.9057 188.828 34.2165 188.828 34.8098C188.828 35.4031 188.263 35.9117 187.292 35.9117C186.771 35.9256 186.26 35.7721 185.833 35.4738L186.186 34.9016C186.51 35.1421 186.906 35.2665 187.309 35.2548C187.811 35.2548 188.079 35.1065 188.079 34.8451C188.079 34.6544 187.888 34.5485 187.486 34.492L187.133 34.4425C186.377 34.3366 185.967 33.9975 185.967 33.4466C185.967 32.7756 186.518 32.3659 187.38 32.3659C187.862 32.3498 188.339 32.4723 188.754 32.7191L188.425 33.3124ZM191.957 33.1217H190.76V34.6438C190.76 34.997 190.88 35.2089 191.247 35.2089C191.476 35.2013 191.7 35.1357 191.897 35.0182L192.109 35.6468C191.833 35.8187 191.515 35.9093 191.191 35.9082C190.322 35.9082 190.018 35.442 190.018 34.658V33.1217H189.333V32.4507H190.018V31.4265H190.76V32.4507H191.957V33.1217ZM194.496 32.3659C194.674 32.3666 194.851 32.3977 195.019 32.4578L194.793 33.1641C194.647 33.1059 194.491 33.0771 194.334 33.0793C193.853 33.0793 193.627 33.3901 193.627 33.9481V35.8375H192.893V32.4648H193.62V32.8745C193.71 32.7196 193.841 32.592 193.997 32.5049C194.154 32.4179 194.331 32.3748 194.51 32.3801L194.496 32.3659ZM199.575 35.3325C199.621 35.3319 199.666 35.3403 199.709 35.3572C199.749 35.3738 199.787 35.3977 199.818 35.4279C199.849 35.4583 199.875 35.4942 199.893 35.5338C199.91 35.5751 199.92 35.6195 199.92 35.6645C199.92 35.7094 199.91 35.7539 199.893 35.7952C199.875 35.8347 199.849 35.8707 199.818 35.9011C199.787 35.9312 199.749 35.9552 199.709 35.9717C199.667 35.9904 199.621 36 199.575 36C199.508 35.9995 199.442 35.98 199.386 35.9437C199.33 35.9074 199.285 35.8559 199.257 35.7952C199.239 35.7539 199.23 35.7094 199.23 35.6645C199.23 35.6196 199.239 35.5751 199.257 35.5338C199.275 35.4942 199.3 35.4583 199.331 35.4279C199.363 35.3977 199.4 35.3738 199.44 35.3572C199.478 35.3425 199.517 35.3341 199.557 35.3325H199.575ZM199.575 35.9294C199.61 35.9296 199.645 35.9224 199.677 35.9082C199.707 35.8946 199.735 35.8754 199.758 35.8517C199.788 35.8215 199.81 35.7845 199.823 35.7438C199.835 35.7032 199.838 35.6601 199.83 35.6183C199.822 35.5766 199.803 35.5374 199.777 35.5042C199.75 35.471 199.716 35.4448 199.677 35.4279C199.645 35.4138 199.61 35.4066 199.575 35.4067C199.539 35.4069 199.505 35.4141 199.472 35.4279C199.441 35.4409 199.412 35.4601 199.387 35.4844C199.343 35.5326 199.319 35.5956 199.319 35.661C199.319 35.7263 199.343 35.7893 199.387 35.8375C199.412 35.8623 199.441 35.8819 199.473 35.8953C199.505 35.9086 199.54 35.9154 199.575 35.9152V35.9294ZM199.596 35.5091C199.629 35.5075 199.661 35.5175 199.688 35.5373C199.699 35.5463 199.707 35.5577 199.713 35.5706C199.718 35.5835 199.72 35.5975 199.719 35.6115C199.72 35.6232 199.718 35.635 199.714 35.6459C199.71 35.6568 199.703 35.6668 199.695 35.6751C199.674 35.6937 199.648 35.7049 199.621 35.7069L199.723 35.8234H199.642L199.546 35.7069H199.515V35.8234H199.448V35.4985L199.596 35.5091ZM199.518 35.5691V35.6539H199.596C199.61 35.658 199.624 35.658 199.638 35.6539C199.641 35.649 199.642 35.6435 199.642 35.638C199.642 35.6325 199.641 35.627 199.638 35.6221C199.641 35.6172 199.642 35.6117 199.642 35.6062C199.642 35.6007 199.641 35.5953 199.638 35.5903C199.624 35.5862 199.61 35.5862 199.596 35.5903L199.518 35.5691Z" fill="black"/>
<path d="M190.897 6.71908H179.773V26.7118H190.897V6.71908Z" fill="#7673C0"/>
<path d="M180.479 16.7172C180.477 14.7915 180.913 12.8905 181.755 11.1583C182.596 9.42611 183.82 7.90805 185.335 6.71908C183.46 5.24504 181.207 4.32843 178.835 4.07399C176.463 3.81956 174.068 4.23757 171.922 5.28025C169.776 6.32293 167.967 7.94822 166.702 9.97036C165.436 11.9925 164.765 14.3299 164.765 16.7154C164.765 19.1009 165.436 21.4383 166.702 23.4605C167.967 25.4826 169.776 27.1079 171.922 28.1506C174.068 29.1933 176.463 29.6113 178.835 29.3568C181.207 29.1024 183.46 28.1858 185.335 26.7117C183.821 25.5231 182.597 24.0056 181.755 22.2741C180.914 20.5425 180.478 18.6423 180.479 16.7172V16.7172Z" fill="#EB001B"/>
<path d="M204.692 24.5928V24.1972H204.858V24.1125H204.438V24.1972H204.604V24.6069L204.692 24.5928ZM205.508 24.5928V24.0983H205.381L205.232 24.4515L205.084 24.0983H204.953V24.5928H205.045V24.2219L205.183 24.5433H205.278L205.416 24.2219V24.5963L205.508 24.5928Z" fill="#00A1DF"/>
<path d="M205.904 16.7172C205.903 19.1023 205.232 21.4391 203.966 23.4607C202.7 25.4823 200.891 27.1071 198.746 28.1495C196.601 29.1919 194.206 29.6099 191.834 29.3556C189.463 29.1014 187.211 28.1852 185.335 26.7118C186.849 25.5221 188.073 24.0042 188.914 22.2725C189.756 20.5409 190.193 18.6407 190.193 16.7154C190.193 14.7901 189.756 12.89 188.914 11.1583C188.073 9.42665 186.849 7.90874 185.335 6.71908C187.211 5.24459 189.463 4.32753 191.835 4.07273C194.207 3.81793 196.603 4.23567 198.749 5.27821C200.895 6.32074 202.704 7.94599 203.97 9.9682C205.236 11.9904 205.907 14.328 205.907 16.7137L205.904 16.7172Z" fill="#00A1DF"/>
</svg>
