<svg width="168" height="40" viewBox="0 0 168 40" fill="none" xmlns="http://www.w3.org/2000/svg">
<path d="M41.0987 6C31.6638 6 24.5012 12.963 24.5012 21.2593C24.5012 28.7655 30.3795 34 38.3819 34C47.8168 34 54.9299 26.8395 54.9299 18.5432C54.9794 10.9877 49.1011 6 41.0987 6ZM38.9746 26.9382C35.3686 26.9382 32.8493 24.5679 32.8493 20.9136C32.8493 16.8642 35.9614 13.0123 40.4566 13.0123C44.0626 13.0123 46.5818 15.4815 46.5818 19.1358C46.6311 23.2346 43.4697 26.9382 38.9746 26.9382Z" fill="#EE7F00"/>
<path d="M97.8558 6C88.4209 6 81.3076 12.963 81.3076 21.2593C81.3076 28.7655 87.1859 34 95.1883 34C104.623 34 111.736 26.8395 111.736 18.5432C111.786 10.9877 105.907 6 97.8558 6ZM95.781 26.9382C92.1752 26.9382 89.6559 24.5679 89.6559 20.9136C89.6559 16.8642 92.7678 13.0123 97.2629 13.0123C100.869 13.0123 103.388 15.4815 103.388 19.1358C103.388 23.2346 100.276 26.9382 95.781 26.9382Z" fill="#EE7F00"/>
<path d="M139.498 14.8395C139.498 9.80244 135.596 6.59256 128.482 6.59256H118.504L114.108 33.4073H122.505L123.888 24.9629H124.284L128.729 33.4073H138.362L132.187 24.0247C136.781 22.4444 139.498 19.037 139.498 14.8395ZM126.062 19.2839H124.827L125.766 13.6543H126.902C129.52 13.6543 130.903 14.4444 130.903 16.1728C130.903 18.1975 128.927 19.2839 126.062 19.2839Z" fill="#EE7F00"/>
<path d="M14.8686 17.3086C11.6577 15.679 10.9662 15.284 10.9662 14.3951C10.9662 13.3086 12.2505 12.7654 13.9794 12.7654C16.0047 12.7654 19.0673 13.0123 22.0806 15.8766C22.8215 13.5556 24.0565 11.4815 25.6372 9.65432C21.389 7.23457 17.4372 6 13.8312 6C6.66863 6 2.51925 9.85185 2.51925 14.4938C2.51925 18.4938 5.53248 20.5679 9.0891 22.3951C12.2999 24.0247 13.0903 24.5679 13.0903 25.5556C13.0903 26.642 11.7565 27.2346 9.97825 27.2346C6.91561 27.2346 3.35901 25.3086 1.23493 23.3333L0 30.7901C2.17347 32.3704 5.3349 34 10.1264 34C17.536 34 21.5372 30.2469 21.5372 25.4568C21.5372 21.5062 18.9685 19.3827 14.8686 17.3086Z" fill="#EE7F00"/>
<path d="M77.1093 18.3456H67.2298L68.0201 13.6543H78.5912C79.9742 10.8395 82.0983 8.41972 84.7165 6.59256H67.4274C63.5745 6.59256 60.3141 9.20984 59.7709 12.7654L56.4119 33.4568H64.8094L66.1925 25.0124H76.1707L76.9116 20.4197C76.9611 19.679 77.0105 19.037 77.1093 18.3456Z" fill="#EE7F00"/>
<path d="M139.695 6.59256C141.968 8.32096 143.351 10.7407 143.647 13.6543H150.661L147.451 33.4073H155.848L159.059 13.6543H166.864L168 6.59256H139.695Z" fill="#EE7F00"/>
</svg>
