<?xml version="1.0" encoding="utf-8"?>
<!-- Generator: Adobe Illustrator 25.2.3, SVG Export Plug-In . SVG Version: 6.00 Build 0)  -->
<svg version="1.1" id="Layer_1" xmlns="http://www.w3.org/2000/svg" xmlns:xlink="http://www.w3.org/1999/xlink" x="0px" y="0px"
	 viewBox="0 0 55 34" style="enable-background:new 0 0 55 34;" xml:space="preserve">
<style type="text/css">
	.st0{fill:#FC1154;}
	.st1{fill:#FFFFFF;}
</style>
<g>
	<path class="st0" d="M52,34H3c-1.7,0-3-1.3-3-3V3c0-1.7,1.3-3,3-3h49c1.7,0,3,1.3,3,3v28C55,32.7,53.7,34,52,34z"/>
</g>
<path class="st1" d="M24.5,10.8V17H22v-5.1c0-1.3-0.9-1.9-1.8-1.9c-0.8,0-1.4,0.4-1.9,1.2V17h-2.5v-4.5c-0.3,0.1-0.5,0.2-0.8,0.2
	c-0.1,2.6-2,4.5-4.5,4.5c-2.6,0-4.5-2-4.5-4.8V7.6h2.5v4.8c0,1,0.5,2.2,2,2.2c1.3,0,1.9-1,1.9-2c-1-0.4-1.7-1.5-1.7-2.9
	c0-1.5,1.1-2.3,2.1-2.3c1.3,0,2.1,1.3,2.1,2.7c0,0,0.4-0.1,0.8-0.4V7.6h2.5v0.8c0.9-0.7,1.7-1,2.6-1c1,0,2,0.4,2.6,1
	C24.1,9,24.5,9.9,24.5,10.8z M25.5,9.8h4.3l-4.5,5.3l0,0V17h8v-2.2h-4.5l4.5-5.4l0,0V7.6h-7.8L25.5,9.8L25.5,9.8z M41.5,8.7
	c0.8,0.9,1.3,2.1,1.3,3.5v0.9H36c0.2,1.2,1,1.8,2.2,1.8c1,0,1.9-0.4,2.3-1.1l0,0l0,0l2,0.9l0,0c-0.8,1.5-2.4,2.4-4.3,2.4
	c-2.8,0-4.7-2-4.7-4.9c0-1.4,0.5-2.6,1.4-3.5c0.9-0.9,2-1.3,3.3-1.3C39.5,7.4,40.6,7.8,41.5,8.7z M40.3,11.1c-0.2-1-1-1.5-2.1-1.5
	c-1,0-1.8,0.6-2.1,1.5H40.3z M49.1,7.5c-0.3-0.1-0.7-0.1-0.7-0.1c-0.8,0-1.6,0.3-2.3,0.9V7.6h-2.5V17H46v-5.8
	c0.5-0.9,1.3-1.5,2.2-1.5c0,0,0.4,0,0.6,0.1L49.1,7.5z"/>
<g>
	<path class="st1" d="M3.9,26.5v-4.5h1.7c1.1,0,1.7,0.6,1.7,1.5c0,0.6-0.3,1-0.7,1.3v0.1l1,1.7H6.5l-0.9-1.6H4.9v1.6H3.9z M4.9,24.1
		h0.7c0.4,0,0.7-0.2,0.7-0.6c0-0.4-0.3-0.7-0.7-0.7H4.9V24.1z"/>
	<path class="st1" d="M7.8,24.9c0-1,0.8-1.7,1.7-1.7c1,0,1.6,0.6,1.6,1.7v0.2H8.7c0,0.4,0.4,0.7,0.8,0.7c0.4,0,0.6-0.2,0.7-0.5
		l0.8,0.1l0,0.1c-0.2,0.7-0.8,1.1-1.6,1.1C8.5,26.6,7.8,25.9,7.8,24.9z M10.3,24.5c0-0.4-0.4-0.6-0.8-0.6c-0.4,0-0.7,0.2-0.8,0.6
		H10.3z"/>
	<path class="st1" d="M11.6,24.9c0-1,0.8-1.7,1.7-1.7c0.9,0,1.4,0.5,1.6,1.2l-0.1,0.1L14,24.5C14,24.2,13.7,24,13.3,24
		c-0.5,0-0.8,0.3-0.8,0.9s0.4,0.9,0.8,0.9c0.4,0,0.7-0.2,0.8-0.6l0.8,0.1l0.1,0.1c-0.2,0.8-0.8,1.2-1.6,1.2
		C12.3,26.6,11.6,25.9,11.6,24.9z"/>
	<path class="st1" d="M15.5,26.5v-4.7h0.9v1.9c0.2-0.3,0.7-0.5,1.1-0.5c0.7,0,1.2,0.4,1.2,1.1v2.2h-0.9v-2c0-0.4-0.2-0.6-0.6-0.6
		c-0.3,0-0.6,0.2-0.8,0.5v2.1H15.5z"/>
	<path class="st1" d="M19.5,26.5v-3.2h0.9v0.4c0.3-0.3,0.6-0.5,1.1-0.5c0.7,0,1.1,0.5,1.1,1.1v2.2h-0.9v-2c0-0.4-0.2-0.6-0.5-0.6
		c-0.3,0-0.6,0.2-0.8,0.5v2H19.5z"/>
	<path class="st1" d="M23.3,25.4v-2.1h0.9v2c0,0.4,0.2,0.6,0.5,0.6c0.3,0,0.6-0.2,0.7-0.5v-2h0.9v3.2h-0.9v-0.4
		c-0.3,0.3-0.6,0.5-1.1,0.5C23.8,26.6,23.3,26.1,23.3,25.4z"/>
	<path class="st1" d="M27.3,26.5v-3.2h0.9v0.4c0.3-0.3,0.6-0.5,1.1-0.5c0.7,0,1.1,0.5,1.1,1.1v2.2h-0.9v-2c0-0.4-0.2-0.6-0.5-0.6
		c-0.3,0-0.6,0.2-0.8,0.5v2H27.3z"/>
	<path class="st1" d="M31.2,26.9L31.2,26.9l0.9-0.2c0.1,0.2,0.3,0.4,0.7,0.4c0.5,0,0.7-0.3,0.7-0.7v-0.2c-0.2,0.2-0.5,0.3-0.9,0.3
		c-0.8,0-1.6-0.6-1.6-1.7s0.8-1.7,1.6-1.7c0.4,0,0.7,0.2,0.9,0.4v-0.3h0.9v3.1c0,0.9-0.6,1.5-1.6,1.5C31.7,27.9,31.3,27.4,31.2,26.9
		z M33.5,25v-0.3c0-0.5-0.3-0.8-0.8-0.8c-0.4,0-0.8,0.3-0.8,0.9c0,0.7,0.4,0.9,0.8,0.9C33.2,25.8,33.5,25.5,33.5,25z"/>
	<path class="st1" d="M34.9,25.6L34.9,25.6l0.7-0.3c0.1,0.3,0.3,0.5,0.7,0.5c0.3,0,0.5-0.1,0.5-0.3c0-0.2-0.1-0.3-0.7-0.4
		c-0.7-0.2-1-0.5-1-1c0-0.5,0.5-0.9,1.2-0.9c0.7,0,1.1,0.3,1.3,0.9l0,0.1l-0.7,0.2c-0.1-0.3-0.3-0.5-0.6-0.5c-0.2,0-0.4,0.1-0.4,0.3
		c0,0.2,0.2,0.3,0.8,0.5c0.6,0.2,1,0.4,1,1c0,0.6-0.5,1.1-1.3,1.1C35.6,26.6,35.1,26.2,34.9,25.6z"/>
	<path class="st1" d="M38.3,26.5v-4.7h0.9v2.6h0l0.9-1.1h1.1L40,24.7l1.3,1.8h-1.1l-1-1.4h0v1.4H38.3z"/>
	<path class="st1" d="M41.4,24.9c0-1.1,0.8-1.7,1.6-1.7c0.4,0,0.7,0.1,1,0.3v-0.3h0.9v3.2h-0.9v-0.3c-0.2,0.2-0.5,0.4-1,0.4
		C42.2,26.6,41.4,26,41.4,24.9z M43.9,25v-0.3c0-0.5-0.4-0.8-0.8-0.8c-0.5,0-0.8,0.3-0.8,0.9s0.4,0.9,0.9,0.9
		C43.6,25.8,43.9,25.5,43.9,25z"/>
	<path class="st1" d="M45.6,25.4v-2.1h0.9v2c0,0.4,0.2,0.6,0.5,0.6c0.3,0,0.6-0.2,0.7-0.5v-2h0.9v3.2h-0.9v-0.4
		c-0.3,0.3-0.6,0.5-1.1,0.5C46,26.6,45.6,26.1,45.6,25.4z"/>
	<path class="st1" d="M49.8,26.5V24h-0.5v-0.8h0.5v-0.5c0-0.7,0.5-1,1.1-1c0.2,0,0.3,0,0.5,0.1v0.7l0,0c-0.1,0-0.2-0.1-0.3-0.1
		c-0.2,0-0.3,0.1-0.3,0.3v0.5h0.7V24h-0.7v2.5H49.8z"/>
</g>
</svg>
