<svg width="124" height="40" viewBox="0 0 124 40" fill="none" xmlns="http://www.w3.org/2000/svg">
<path d="M53.0397 15.9763V33.4914H45.8176V18.8446C45.8176 15.2354 43.1333 13.2876 40.6083 13.2876C38.421 13.2876 36.7118 14.3337 35.0703 16.6808V33.4926H27.8482V20.5664C27.1191 20.8188 26.3699 21.031 25.6332 21.1956C25.2467 28.6502 19.981 33.9648 12.8279 33.9648C5.39495 33.9648 0 28.2257 0 20.319V6.60531H7.22339V20.319C7.22339 23.279 8.69166 26.7363 12.8292 26.7363C16.6354 26.7363 18.1827 23.8102 18.4048 21.0361C15.4043 19.7727 13.547 16.7286 13.547 12.686C13.547 8.4991 16.6668 6.03642 19.6761 6.03642C23.5262 6.03642 25.6571 9.87424 25.637 13.6882C25.637 13.6882 26.705 13.3052 27.8482 12.6559V6.60405H35.0703V8.91101C37.5413 6.89917 39.8228 6 42.4556 6C45.3645 6 48.0463 7.01848 50.0053 8.86832C51.963 10.7169 53.0397 13.2411 53.0397 15.9763ZM55.9198 12.9774H68.1478L55.2634 28.2985L55.2534 28.3098V33.4914H78.1484V27.1294H65.1912L78.1383 11.6035L78.1484 11.5922V6.60531H55.9198V12.9774ZM101.549 9.76121C103.971 12.2201 105.251 15.7088 105.251 19.8506V22.3446H85.8474C86.3481 25.6613 88.7312 27.6392 92.23 27.6392C95.1377 27.6392 97.6525 26.4688 98.792 24.5863L98.8108 24.5536L98.8447 24.5687L104.507 27.1206L104.487 27.1607C102.224 31.5072 97.7203 34 92.1271 34C84.0955 34 78.6993 28.3952 78.6993 20.0527C78.6993 16.1195 80.1312 12.5328 82.7314 9.9521C85.23 7.47183 88.5668 6.10549 92.1283 6.10549C95.937 6.10675 99.1936 7.37011 101.549 9.76121ZM98.2185 16.6947C97.6249 13.9193 95.3522 12.2653 92.1283 12.2653C89.1868 12.2653 86.9254 13.9193 86.0695 16.6947H98.2185ZM123.347 6.40814C122.39 6.10675 121.3 6.10674 121.3 6.10674C118.931 6.10674 116.646 7.02225 114.687 8.75404V6.60531H107.465V33.4926H114.687V16.8165C116.111 14.1114 118.297 12.622 120.842 12.622C120.842 12.622 121.987 12.632 122.7 12.8418L123.347 6.40814Z" fill="#FC1154"/>
</svg>
